<svg xmlns="http://www.w3.org/2000/svg" version="1.1" xmlns:xlink="http://www.w3.org/1999/xlink" xmlns:svgjs="http://svgjs.com/svgjs" width="1440" height="560" preserveAspectRatio="none" viewBox="0 0 1440 560"><g mask="url(&quot;#SvgjsMask1011&quot;)" fill="none"><rect width="1440" height="560" x="0" y="0" fill="rgba(247, 247, 247, 1)"></rect><path d="M -807.2919121798218,330 C -711.29,278.6 -519.29,38.8 -327.29191217982185,73 C -135.29,107.2 -39.29,477.8 152.70808782017815,501 C 344.71,524.2 440.71,207 632.7080878201782,189 C 824.71,171 951.25,405.6 1112.7080878201782,411 C 1274.17,416.4 1374.54,255 1440,216" stroke="rgba(51, 121, 194, 0.58)" stroke-width="2"></path><path d="M -624.7867592963452,298 C -528.79,267.8 -336.79,116.4 -144.78675929634517,147 C 47.21,177.6 143.21,453.8 335.21324070365483,451 C 527.21,448.2 623.21,154.2 815.2132407036548,133 C 1007.21,111.8 1170.26,347 1295.2132407036547,345 C 1420.17,343 1411.04,167.4 1440,123" stroke="rgba(51, 121, 194, 0.58)" stroke-width="2"></path><path d="M -364.2643398437734,218 C -268.26,230.6 -76.26,299.4 115.7356601562266,281 C 307.74,262.6 403.74,97.2 595.7356601562266,126 C 787.74,154.8 883.74,410 1075.7356601562267,425 C 1267.74,440 1482.88,214.6 1555.7356601562267,201 C 1628.59,187.4 1463.15,325.8 1440,357" stroke="rgba(51, 121, 194, 0.58)" stroke-width="2"></path><path d="M -711.0856394302627,369 C -615.09,336.6 -423.09,200.2 -231.0856394302628,207 C -39.09,213.8 56.91,429.8 248.9143605697372,403 C 440.91,376.2 536.91,62.6 728.9143605697373,73 C 920.91,83.4 1066.7,429.8 1208.9143605697373,455 C 1351.13,480.2 1393.78,250.2 1440,199" stroke="rgba(51, 121, 194, 0.58)" stroke-width="2"></path></g><defs><mask id="SvgjsMask1011"><rect width="1440" height="560" fill="#ffffff"></rect></mask></defs></svg>